<?xml version="1.0" standalone="no"?>
<!DOCTYPE svg PUBLIC "-//W3C//DTD SVG 20010904//EN"
 "http://www.w3.org/TR/2001/REC-SVG-20010904/DTD/svg10.dtd">
<svg version="1.0" xmlns="http://www.w3.org/2000/svg"
 width="86.000000pt" height="86.000000pt" viewBox="0 0 86.000000 86.000000"
 preserveAspectRatio="xMidYMid meet">
<metadata>
Created by potrace 1.14, written by Peter Selinger 2001-2017
</metadata>
<g transform="translate(0.000000,86.000000) scale(0.100000,-0.100000)"
fill="#000000" stroke="none">
<path d="M597 669 c-22 -25 -15 -38 8 -15 33 33 85 8 85 -40 0 -17 -8 -28 -26
-36 -30 -14 -54 -3 -69 30 -12 27 -26 29 -22 2 11 -70 104 -82 132 -16 11 25
11 35 -1 57 -22 44 -77 53 -107 18z"/>
<path d="M332 537 c-63 -79 -91 -122 -84 -129 7 -7 14 -4 21 8 27 47 40 57 55
45 11 -9 20 -9 34 -2 16 8 21 6 31 -15 11 -24 12 -24 42 -8 31 16 32 16 69
-21 l38 -37 27 18 28 18 32 -38 c18 -21 40 -51 48 -66 l16 -27 -259 0 c-143 0
-260 2 -260 4 0 3 11 19 25 37 14 18 25 38 25 44 0 6 6 12 13 15 6 2 9 8 5 12
-5 5 -10 6 -11 4 -63 -76 -96 -122 -93 -128 7 -10 596 -10 596 -1 0 4 -21 34
-47 68 -27 33 -91 116 -143 185 -52 69 -99 127 -105 130 -5 2 -52 -50 -103
-116z m176 -12 c69 -90 71 -95 51 -105 -17 -10 -25 -8 -47 12 -15 12 -30 27
-33 32 -4 5 -21 4 -39 -2 -29 -10 -33 -10 -37 8 -6 22 -24 25 -54 10 -33 -18
-23 11 28 78 27 34 50 62 53 62 3 0 38 -43 78 -95z"/>
</g>
</svg>
