<svg xmlns="http://www.w3.org/2000/svg" version="1.1" viewBox="-5.0 -10.0 110.0 135.0">
 <path d="m95.305 65.844-5.8242-10.059h3.668c0.52344 0 1.0078-0.27734 1.2695-0.73438 0.26172-0.45312 0.26172-1.0117 0-1.4648l-5.8711-10.168h3.6484c0.52344 0 1.0078-0.27734 1.2695-0.73438 0.26172-0.45312 0.26172-1.0117 0-1.4648l-9.7227-16.848c-0.26172-0.45312-0.74609-0.73047-1.2695-0.73047-0.52344 0-1.0078 0.27734-1.2695 0.73047l-9.7383 16.852c-0.26172 0.45312-0.26172 1.0117-0.003906 1.4648 0.26172 0.45703 0.74609 0.73438 1.2695 0.73438h3.6719l-4.5156 7.8047c-2.5508-4.4219-5.1016-8.8438-7.6523-13.258l-11.707-20.281c-0.007813-0.015625-0.019532-0.019531-0.023438-0.03125-0.058594-0.097656-0.12891-0.19141-0.21094-0.26953-0.003907-0.007813-0.007813-0.007813-0.015625-0.011719-0.078125-0.074219-0.16406-0.14062-0.25781-0.19531-0.027343-0.019532-0.058593-0.03125-0.085937-0.050782-0.074219-0.035156-0.15234-0.070312-0.23438-0.09375-0.03125-0.011718-0.0625-0.023437-0.09375-0.03125-0.11328-0.027344-0.22656-0.046875-0.34766-0.046875-0.12109 0-0.23437 0.019531-0.34766 0.046875-0.03125 0.007813-0.0625 0.019532-0.09375 0.03125-0.082031 0.023438-0.16016 0.058594-0.23438 0.09375-0.03125 0.019532-0.058593 0.03125-0.089843 0.050782-0.09375 0.058593-0.17969 0.12109-0.25781 0.19531-0.003906 0.003906-0.011719 0.003906-0.015625 0.011719-0.082031 0.082031-0.14844 0.17578-0.20703 0.26953-0.007813 0.011719-0.019531 0.019531-0.023438 0.03125l-25.285 43.793c-0.019531 0.015625-0.042969 0.015625-0.0625 0.027343-0.53516 0.32422-0.80469 0.95703-0.66797 1.5703 0.13672 0.61719-0.10938 1.2695-0.59766 1.6367-0.49609 0.35547-1.1445 0.42578-1.6758 0.16797-0.88281-0.76953-2.9219-2.9414 0.10547-9.5156 0.25-0.53906 0.14844-1.1758-0.25781-1.6094-0.40625-0.4375-1.0312-0.58203-1.5898-0.37109-6.2578 2.3516-9.5664 6.9805-9.0781 12.707 0.054688 0.63672 0.17188 1.2617 0.28125 1.8633 0.37891 2.0195 0.37891 2.6758-0.33984 3.1445-0.42187 0.27734-0.9375 0.0625-1.2969-0.40234-0.13672-0.17578-0.43359-0.64453-0.28516-1.207 0.18359-0.69922-0.16797-1.4258-0.82812-1.7148-0.66016-0.28516-1.4336-0.054688-1.8203 0.55078-1.3633 2.1445-2.0898 4.6523-2.0898 7.25 0 7.4922 6.0977 13.594 13.59 13.594 2.5312 0 4.9414-0.69531 7.0234-1.9531h65.02c0.52344 0 1.0078-0.27734 1.2656-0.73047 0.26172-0.45312 0.26172-1.0117 0-1.4648-1.6328-2.8281-3.2695-5.6562-4.9023-8.4883v-8.4883h7.5391c0.52344 0 1.0078-0.28125 1.2695-0.73438 0.26172-0.45703 0.26172-1.0156 0-1.4688zm-20.316-9.2539c-0.15625-0.26953-0.3125-0.53516-0.46484-0.80469h0.92578zm-46.473 27.699c0.41016-0.49609 0.79297-1.0195 1.1406-1.5742 4.0391-6.4258 3.0273-14.809-2.2344-20.086l22.371-38.746v26.32l-8.9883 34.086zm-21.086-8.7109c0-0.86328 0.10156-1.7109 0.30078-2.5312 1.3086 1.207 3.2578 1.4414 4.6953 0.50391 2.4688-1.6055 1.9766-4.2266 1.6211-6.1367-0.10547-0.55469-0.20312-1.0781-0.24219-1.5703-0.28516-3.3242 1.1172-6.1172 4-8.0898-1.1289 4.1211-0.42188 7.293 2.1133 9.457 0.070312 0.0625 0.14453 0.11328 0.22656 0.16016 1.5234 0.875 3.4766 0.77734 4.9727-0.30078 0.48437-0.36328 0.88281-0.81641 1.1836-1.3203 3.4688 4.332 3.9336 10.551 0.87891 15.41-0.84766 1.3711-1.9609 2.5-3.25 3.3477-0.03125 0.019532-0.0625 0.039063-0.089844 0.058594-0.98828 0.63281-2.0781 1.0938-3.2266 1.3711 1.9727-0.96484 3.4062-2.7891 3.832-4.9883 0.68359-3.5508-1.0664-5.3242-2.6055-6.8867-1.1172-1.1289-2.1719-2.1992-2.5586-4.0781-0.11328-0.53516-0.51172-0.96484-1.0391-1.1133-0.52734-0.14844-1.0938 0.015625-1.4648 0.41406-1.7344 1.8672-2.3438 4.1953-1.7656 6.7266 0.019531 0.074219 0.042969 0.15234 0.070312 0.22656 0.25 0.61719 0.25781 1.0469 0.15234 1.2031-0.10156 0.15234-0.61719 0.28125-1.1797 0.14062-0.77734-0.19141-1.5625 0.27734-1.7695 1.0508-0.49609 1.8945-0.097656 3.8672 1.0938 5.4141 0.69531 0.89844 1.5977 1.5664 2.6094 1.9805-4.8828-0.98438-8.5586-5.293-8.5586-10.449zm10.395-0.32031c-0.11328-0.52734-0.14453-1.0234-0.10156-1.4883 0.63281 0.94922 1.3672 1.6953 2.0156 2.3555 1.3789 1.3984 2.207 2.2422 1.8164 4.2773-0.28125 1.4648-1.332 2.6523-2.7461 3.1211-1.207 0.18359-2.3867-0.30078-3.1289-1.2656-0.38672-0.5-0.61719-1.0898-0.67578-1.6992 1.1289-0.10938 2.0742-0.63672 2.6445-1.4844 0.48437-0.71484 0.89844-1.957 0.17578-3.8164zm26.008 9.0312 7.4258-28.152 7.4258 28.152zm17.883 0-8.9922-34.086v-26.32l8.9766 15.547c8.6328 14.949 17.27 29.902 25.898 44.859zm21.855-12.832c-0.65625-1.1367-1.3125-2.2773-1.9727-3.4141h1.9727zm-3.6641-6.3438c-1.0742-1.8633-2.1523-3.7266-3.2266-5.5898l2.5703-4.4727c0.26172-0.45312 0.26172-1.0117 0-1.4648-0.26172-0.45313-0.74609-0.73047-1.2695-0.73047h-3.6562l5.8789-10.172c0.26172-0.45312 0.26172-1.0117 0-1.4648s-0.74609-0.73047-1.2695-0.73047h-3.6602l7.1992-12.457 7.1836 12.457-3.6445 0.003907c-0.52344 0-1.0078 0.27734-1.2695 0.73047-0.26172 0.45312-0.26172 1.0117 0 1.4648l5.8672 10.172h-3.668c-0.52344 0-1.0078 0.27734-1.2695 0.73047s-0.26172 1.0117 0 1.4648l5.8203 10.062zm-60.113 26.086v3.1211c0 0.8125-0.65625 1.4648-1.4648 1.4648s-1.4648-0.65234-1.4648-1.4648v-3.1211c0-0.80859 0.65625-1.4648 1.4648-1.4648s1.4648 0.65625 1.4648 1.4648zm-4.5195-1.1367c0.36719 0.71875 0.078124 1.6016-0.64453 1.9648l-7.1133 3.6016c-0.21094 0.10938-0.4375 0.16016-0.66016 0.16016-0.53516 0-1.0508-0.29297-1.3086-0.80469-0.36328-0.72266-0.078125-1.6016 0.64453-1.9688l7.1133-3.6016c0.72656-0.36328 1.6055-0.078124 1.9688 0.64844zm15.84 4.918c-0.25781 0.51172-0.77344 0.80859-1.3086 0.80859-0.22266 0-0.44531-0.050781-0.66016-0.16016l-7.1367-3.6016c-0.72266-0.36328-1.0117-1.2461-0.64844-1.9688 0.36328-0.72656 1.2461-1.0117 1.9648-0.64453l7.1367 3.6016c0.72656 0.36328 1.0156 1.2461 0.65234 1.9648zm-12.176-62.082c5.6328 0 10.707-3.3555 12.93-8.543 0.25781-0.59766 0.085937-1.2969-0.41797-1.7109-0.50391-0.41406-1.2188-0.44141-1.7578-0.074219-1.3086 0.89453-2.8594 1.3711-4.4844 1.3711-4.4297 0-8.0352-3.6055-8.0352-8.0352 0-3.5664 2.4023-6.7539 5.8398-7.75 0.62109-0.17969 1.0547-0.75 1.0586-1.3984 0.003907-0.64844-0.42187-1.2227-1.0391-1.4102-1.3281-0.40234-2.7031-0.60547-4.0898-0.60547-7.7695 0-14.09 6.3164-14.09 14.09-0.003906 7.7578 6.3164 14.066 14.086 14.066zm-1.0156-25.18c-2.2812 2.0469-3.6836 5.0078-3.6836 8.1875 0 6.043 4.918 10.965 10.965 10.965 0.51953 0 1.0391-0.035156 1.5469-0.10547-2.043 2.0195-4.8281 3.2109-7.8125 3.2109-6.1523 0-11.16-5-11.16-11.141 0-5.8164 4.4648-10.605 10.145-11.117z"/>
</svg>
