<svg xmlns="http://www.w3.org/2000/svg" version="1.1" viewBox="-5.0 -10.0 110.0 135.0">
 <g>
  <path d="m50.43 37.18h-0.85938c-5.9141-0.003907-10.711-4.7969-10.719-10.711v-8.6797c0.003907-5.918 4.8008-10.715 10.719-10.719h0.85938c5.918 0.003907 10.715 4.8008 10.719 10.719v8.6797c-0.007813 5.9141-4.8047 10.707-10.719 10.711zm-0.85938-27.109c-4.2617 0.003907-7.7148 3.457-7.7188 7.7188v8.6797c0.007813 4.2578 3.4609 7.707 7.7188 7.7109h0.85938c4.2617 0 7.7148-3.4492 7.7188-7.7109v-8.6797c0-4.2617-3.4531-7.7188-7.7188-7.7188z"/>
  <path d="m50 22.629c-5.1016 0.007813-10.168-0.81641-15-2.4492-0.78516-0.27734-1.1953-1.1367-0.92188-1.918 0.27734-0.78516 1.1367-1.1992 1.9219-0.92188 9.0859 3.0508 18.914 3.0508 28 0 0.78516-0.27734 1.6445 0.13672 1.9219 0.92188 0.27344 0.78125-0.13672 1.6406-0.92188 1.918-4.832 1.6328-9.8984 2.457-15 2.4492z"/>
  <path d="m64 87h-1.1992c-0.82812 0-1.5-0.67188-1.5-1.5s0.67188-1.5 1.5-1.5h1.1992c3.9766-0.011719 7.1992-3.2344 7.2109-7.2109v-18.449c0-7.5586-4.0352-14.547-10.582-18.324-6.5469-3.7812-14.613-3.7812-21.16 0-6.5469 3.7773-10.578 10.766-10.578 18.324v18.441c0.003906 3.9609 3.1992 7.1797 7.1602 7.2188h1.1992c0.82812 0 1.5 0.67188 1.5 1.5s-0.67188 1.5-1.5 1.5h-1.1992c-5.6406-0.003906-10.211-4.5781-10.211-10.219v-18.441c0-8.6328 4.6055-16.605 12.082-20.922 7.4727-4.3164 16.684-4.3164 24.156 0 7.4766 4.3164 12.082 12.289 12.082 20.922v18.441c0 5.6211-4.5391 10.188-10.16 10.219z"/>
  <path d="m60 92.93h-19.941c-2.3789 0-4.3086-1.9297-4.3086-4.3086v-32.621c0-0.82812 0.67188-1.5 1.5-1.5s1.5 0.67188 1.5 1.5v32.621c0 0.72266 0.58594 1.3086 1.3086 1.3086h19.941c0.71875-0.003907 1.3008-0.58984 1.3008-1.3086v-32.621c0-0.82812 0.67188-1.5 1.5-1.5s1.5 0.67188 1.5 1.5v32.621c0 2.375-1.9258 4.3047-4.3008 4.3086z"/>
  <path d="m37.25 75.469h-9.9102c-0.82812 0-1.5-0.67188-1.5-1.5s0.67188-1.5 1.5-1.5h9.9102c0.82812 0 1.5 0.67188 1.5 1.5s-0.67188 1.5-1.5 1.5z"/>
  <path d="m72.66 75.469h-9.9102c-0.82812 0-1.5-0.67188-1.5-1.5s0.67188-1.5 1.5-1.5h9.9102c0.82812 0 1.5 0.67188 1.5 1.5s-0.67188 1.5-1.5 1.5z"/>
  <path d="m72.289 48.801h-2.5c-0.82812 0-1.5-0.67188-1.5-1.5s0.67188-1.5 1.5-1.5h2.5c1.1484 0 2.25-0.45703 3.0625-1.2695s1.2695-1.9141 1.2695-3.0625v-5.8281c0-2.3906-1.9414-4.332-4.332-4.332h-13.398c-0.82812 0-1.5-0.67188-1.5-1.5s0.67188-1.5 1.5-1.5h13.398c4.0469 0.007812 7.3242 3.2852 7.332 7.332v5.8281c0 4.0508-3.2812 7.332-7.332 7.332z"/>
  <path d="m30.211 48.801h-2.4922c-4.0469 0-7.332-3.2812-7.3398-7.332v-5.8281c0.007813-4.0508 3.293-7.332 7.3398-7.332h13.402c0.82812 0 1.5 0.67188 1.5 1.5s-0.67188 1.5-1.5 1.5h-13.402c-2.3906 0-4.332 1.9375-4.3398 4.332v5.8281c0.007813 2.3945 1.9492 4.332 4.3398 4.332h2.4922c0.82812 0 1.5 0.67188 1.5 1.5s-0.67188 1.5-1.5 1.5z"/>
  <path d="m50 44.102c-3.9219-0.03125-7.7031-1.4492-10.68-4-0.625-0.55469-0.68359-1.5078-0.12891-2.1328 0.55078-0.62109 1.5039-0.67969 2.1289-0.12891 2.418 2.0781 5.4922 3.2305 8.6797 3.2617 3.2148-0.027343 6.3203-1.1953 8.75-3.3008 0.625-0.55469 1.5781-0.49609 2.1289 0.12891 0.55469 0.625 0.49609 1.5781-0.12891 2.1289-2.9844 2.5898-6.8008 4.0195-10.75 4.043z"/>
  <path d="m50 51.719c-0.82812 0-1.5-0.67188-1.5-1.5v-7.6172c0-0.82812 0.67188-1.5 1.5-1.5s1.5 0.67188 1.5 1.5v7.6211-0.003906c0 0.82812-0.67188 1.5-1.5 1.5z"/>
  <path d="m62.75 81.641h-25.5c-0.82812 0-1.5-0.67188-1.5-1.5s0.67188-1.5 1.5-1.5h25.5c0.82812 0 1.5 0.67188 1.5 1.5s-0.67188 1.5-1.5 1.5z"/>
 </g>
</svg>
