<svg xmlns="http://www.w3.org/2000/svg" version="1.1" viewBox="-5.0 -10.0 110.0 135.0">
 <path fill="#ffffff" d="m22.859 61.094c-0.50391 0.65234-1.4414 0.77344-2.0977 0.26953-0.65234-0.50391-0.77344-1.4414-0.26953-2.0977l9.4336-12.203 0.074219-0.097656 18.816-24.344c0.50391-0.65234 1.4414-0.77344 2.0977-0.26953 0.10938 0.085938 0.20703 0.18359 0.28516 0.28906l45.242 58.527c0.50391 0.65234 0.38281 1.5938-0.26953 2.0977-0.27344 0.21094-0.59375 0.3125-0.91406 0.3125l-90.523 0.007813c-0.82812 0-1.5-0.67188-1.5-1.5 0-0.38672 0.14844-0.73828 0.38672-1.0039l11.109-14.371c0.50391-0.65234 1.4414-0.77344 2.0977-0.26953 0.65234 0.50391 0.77344 1.4414 0.26953 2.0977l-9.3125 12.047h84.426l-16.293-21.078-7.3672 5.1094c-0.55078 0.40234-1.3242 0.39062-1.8594-0.074219l-11.582-9.9922-8.6914 3.6289c-0.76562 0.30469-1.6367-0.066407-1.9453-0.83203l-2.5586-6.3477-6.0664 3.1094c-0.62891 0.36719-1.4492 0.22656-1.918-0.35547l-2.7578-3.4102-8.3164 10.758zm56.273-40.465c-0.70312 0.43359-1.6211 0.21484-2.0547-0.48438-0.43359-0.70312-0.21484-1.6211 0.48438-2.0547 0.87109-0.53906 1.8164-0.96484 2.8164-1.2461 0.97656-0.27734 2.0039-0.42969 3.0547-0.42969 3.082 0 5.8711 1.25 7.8906 3.2656 2.0195 2.0195 3.2656 4.8086 3.2656 7.8906 0 3.082-1.25 5.875-3.2656 7.8945-2.0195 2.0195-4.8086 3.2656-7.8906 3.2656-3.0859 0-5.8789-1.2578-7.9023-3.293-2.0117-2.0312-3.2578-4.8398-3.2578-7.9531 0-0.82812 0.67187-1.5 1.5-1.5 0.82812 0 1.5 0.67188 1.5 1.5 0 2.2969 0.91016 4.3633 2.3789 5.8438 1.4727 1.4883 3.5195 2.4062 5.7812 2.4062 2.2539 0 4.293-0.91406 5.7695-2.3867 1.4766-1.4766 2.3867-3.5156 2.3867-5.7734 0-2.2539-0.91406-4.293-2.3867-5.7695-1.4766-1.4766-3.5156-2.3867-5.7695-2.3867-0.77734 0-1.5312 0.10938-2.2344 0.30859-0.74219 0.21094-1.4336 0.51563-2.0625 0.90625zm-2.8789 3.0508c-0.40625 0.71875-1.3203 0.96875-2.0391 0.5625s-0.96875-1.3203-0.5625-2.0391l0.13672-0.23828c0.40625-0.71875 1.3203-0.96875 2.0391-0.5625s0.96875 1.3203 0.5625 2.0391zm-2.1641 33.461-24.086-31.16-16.945 21.922 2.4414 3.0234 6.5117-3.3359c0.73047-0.375 1.6367-0.085938 2.0117 0.65234l2.6602 6.582 8.1289-3.3945c0.56641-0.23438 1.1953-0.097657 1.6094 0.30078l11.348 9.793zm-54.191 7.7891c-0.50391 0.65234-1.4414 0.77344-2.0977 0.26953-0.65234-0.50391-0.77344-1.4414-0.26953-2.0977l0.17188-0.21875c0.50391-0.65234 1.4414-0.77344 2.0977-0.26953 0.65234 0.50391 0.77344 1.4414 0.26953 2.0977z"/>
</svg>
