<svg xmlns="http://www.w3.org/2000/svg" xmlns:xlink="http://www.w3.org/1999/xlink" version="1.1" x="0px" y="0px" viewBox="0 0 100 125" enable-background="new 0 0 100 100" xml:space="preserve"><path fill-rule="evenodd" clip-rule="evenodd" d="M29.2,43.8c5.1,0,9.9,2.5,12.7,6.8l1.4-13.4c-2.9,0.9-6-0.5-7.2-3.2l-9,10  C27.8,43.8,28.5,43.8,29.2,43.8L29.2,43.8z M45.7,48.9c1.3-0.7,2.8-1,4.2-1c1.5,0,2.9,0.3,4.3,1L53.9,46c-1.2-0.9-2.6-1.3-4-1.3  c-1.4,0-2.8,0.4-3.9,1.3L45.7,48.9L45.7,48.9z M54.6,52.3l-0.3,0.3c-1.2-1.1-2.8-1.7-4.4-1.7c-1.6,0-3.1,0.6-4.4,1.7l-0.3-0.3  l-0.9,8.2c-0.7,8-7.3,14.1-15.3,14.1c-8.5,0-15.4-6.9-15.4-15.4c0-4.2,1.6-7.9,4.3-10.7l18.5-20.4c1.1-1.6,3-2.6,5-2.6  c3.3,0,6,2.7,6,6c0,0.4,0,0.8-0.1,1.2l-1,9.7c1.1-0.5,2.3-0.7,3.5-0.7c1.2,0,2.4,0.2,3.6,0.7l-1-9.7c-0.1-0.4-0.1-0.8-0.1-1.2  c0-3.3,2.7-6,6-6c2,0,3.8,1,5,2.6l18.5,20.4c2.7,2.8,4.3,6.5,4.3,10.7c0,8.5-6.9,15.4-15.4,15.4c-8,0-14.7-6.1-15.3-14.1L54.6,52.3  L54.6,52.3z M70.8,43.8c0.7,0,1.4,0,2.1,0.1l-9-10c-1.3,2.7-4.4,4.1-7.2,3.2l1.4,13.4C60.9,46.3,65.7,43.8,70.8,43.8L70.8,43.8z   M70.7,50c-2.4,0-2.3,3.7,0.1,3.6c3-0.1,5.6,2.2,5.9,5.2c0.3,2.4,3.9,2,3.6-0.4C79.8,53.5,75.6,49.9,70.7,50L70.7,50z M56,31.4  c0.1,1.4,0.8,2.4,2.4,2.4c1.3,0,2.4-1.1,2.4-2.4c0-1.3-1.1-2.4-2.4-2.4C57.1,29.1,56.1,30.1,56,31.4L56,31.4z M70.8,47.4  c-6.5,0-11.8,5.3-11.8,11.8c0,6.5,5.3,11.8,11.8,11.8c6.5,0,11.8-5.3,11.8-11.8C82.6,52.7,77.3,47.4,70.8,47.4L70.8,47.4z M29.3,50  c2.4,0,2.3,3.7-0.1,3.6c-3-0.1-5.6,2.2-5.9,5.2c-0.3,2.4-3.9,2-3.6-0.4C20.2,53.5,24.4,49.9,29.3,50L29.3,50z M44,31.4  c0-1.3-1.1-2.3-2.4-2.3c-1.3,0-2.4,1.1-2.4,2.4c0,1.3,1.1,2.4,2.4,2.4C43.1,33.8,43.8,32.7,44,31.4L44,31.4z M29.2,47.4  c6.5,0,11.8,5.3,11.8,11.8c0,6.5-5.3,11.8-11.8,11.8c-6.5,0-11.8-5.3-11.8-11.8C17.4,52.7,22.7,47.4,29.2,47.4z"/></svg>
